<?xml version="1.0" encoding="utf-8"?>
<!-- Generator: Adobe Illustrator 16.0.0, SVG Export Plug-In . SVG Version: 6.00 Build 0)  -->
<!DOCTYPE svg PUBLIC "-//W3C//DTD SVG 1.1//EN" "http://www.w3.org/Graphics/SVG/1.1/DTD/svg11.dtd">
<svg version="1.1" id="Layer_1" xmlns="http://www.w3.org/2000/svg" xmlns:xlink="http://www.w3.org/1999/xlink" x="0px" y="0px"
	 width="870px" height="310px" viewBox="45 125 870 310" enable-background="new 45 125 870 310" xml:space="preserve">
<text transform="matrix(1 0 0 1 406.8745 -64.8721)" font-family="'FONTSPRINGDEMO-BebasNeueProBold'" font-size="70">MOWAM</text>
<g>
	<g>
		<g>
			
				<linearGradient id="SVGID_1_" gradientUnits="userSpaceOnUse" x1="385.7349" y1="333.8799" x2="385.7349" y2="213.7822" gradientTransform="matrix(1 0 0 -1 84 535)">
				<stop  offset="0" style="stop-color:#5D94A3"/>
				<stop  offset="0.2185" style="stop-color:#5E94A1"/>
				<stop  offset="0.3277" style="stop-color:#649299"/>
				<stop  offset="0.4126" style="stop-color:#6C908C"/>
				<stop  offset="0.4851" style="stop-color:#788C79"/>
				<stop  offset="0.5489" style="stop-color:#888861"/>
				<stop  offset="0.558" style="stop-color:#8B875D"/>
				<stop  offset="1" style="stop-color:#96844D"/>
			</linearGradient>
			<path fill="url(#SVGID_1_)" d="M430.617,201.121h26.595l12.522,87.154l12.524-87.154h26.595v120.097h-17.843v-90.932
				l-14.068,90.932h-15.784l-14.073-90.932v90.932h-16.47L430.617,201.121L430.617,201.121z"/>
			
				<linearGradient id="SVGID_2_" gradientUnits="userSpaceOnUse" x1="483.3584" y1="335.5957" x2="483.3584" y2="212.0684" gradientTransform="matrix(1 0 0 -1 84 535)">
				<stop  offset="0" style="stop-color:#5D94A3"/>
				<stop  offset="0.2185" style="stop-color:#5E94A1"/>
				<stop  offset="0.3277" style="stop-color:#649299"/>
				<stop  offset="0.4126" style="stop-color:#6C908C"/>
				<stop  offset="0.4851" style="stop-color:#788C79"/>
				<stop  offset="0.5489" style="stop-color:#888861"/>
				<stop  offset="0.558" style="stop-color:#8B875D"/>
				<stop  offset="1" style="stop-color:#96844D"/>
			</linearGradient>
			<path fill="url(#SVGID_2_)" d="M538.708,292.736V229.6c0-19.217,10.123-30.195,28.651-30.195s28.65,10.978,28.65,30.195v63.136
				c0,19.214-10.122,30.195-28.65,30.195S538.708,311.95,538.708,292.736z M577.138,293.937v-65.539
				c0-8.577-3.775-11.837-9.778-11.837c-6.006,0-9.779,3.26-9.779,11.837v65.539c0,8.578,3.773,11.84,9.779,11.84
				C573.362,305.776,577.138,302.515,577.138,293.937z"/>
			
				<linearGradient id="SVGID_3_" gradientUnits="userSpaceOnUse" x1="582.6094" y1="333.8799" x2="582.6094" y2="213.7822" gradientTransform="matrix(1 0 0 -1 84 535)">
				<stop  offset="0" style="stop-color:#5D94A3"/>
				<stop  offset="0.2185" style="stop-color:#5E94A1"/>
				<stop  offset="0.3277" style="stop-color:#649299"/>
				<stop  offset="0.4126" style="stop-color:#6C908C"/>
				<stop  offset="0.4851" style="stop-color:#788C79"/>
				<stop  offset="0.5489" style="stop-color:#888861"/>
				<stop  offset="0.558" style="stop-color:#8B875D"/>
				<stop  offset="1" style="stop-color:#96844D"/>
			</linearGradient>
			<path fill="url(#SVGID_3_)" d="M621.403,201.121h18.187l8.579,94.018l9.092-94.018h20.585l9.092,94.018l8.578-94.018h16.302
				l-12.182,120.097h-23.507l-8.747-82.524l-8.752,82.524h-25.045L621.403,201.121z"/>
			
				<linearGradient id="SVGID_4_" gradientUnits="userSpaceOnUse" x1="679.5488" y1="333.8799" x2="679.5488" y2="213.7822" gradientTransform="matrix(1 0 0 -1 84 535)">
				<stop  offset="0" style="stop-color:#5D94A3"/>
				<stop  offset="0.2185" style="stop-color:#5E94A1"/>
				<stop  offset="0.3277" style="stop-color:#649299"/>
				<stop  offset="0.4126" style="stop-color:#6C908C"/>
				<stop  offset="0.4851" style="stop-color:#788C79"/>
				<stop  offset="0.5489" style="stop-color:#888861"/>
				<stop  offset="0.558" style="stop-color:#8B875D"/>
				<stop  offset="1" style="stop-color:#96844D"/>
			</linearGradient>
			<path fill="url(#SVGID_4_)" d="M773.76,297.712h-21.792l-3.257,23.506h-17.502l19.56-120.097h25.563l19.559,120.097h-18.872
				L773.76,297.712z M771.354,281.412l-8.575-60.562l-8.408,60.562H771.354z"/>
			
				<linearGradient id="SVGID_5_" gradientUnits="userSpaceOnUse" x1="777.085" y1="333.8799" x2="777.085" y2="213.7822" gradientTransform="matrix(1 0 0 -1 84 535)">
				<stop  offset="0" style="stop-color:#5D94A3"/>
				<stop  offset="0.2185" style="stop-color:#5E94A1"/>
				<stop  offset="0.3277" style="stop-color:#649299"/>
				<stop  offset="0.4126" style="stop-color:#6C908C"/>
				<stop  offset="0.4851" style="stop-color:#788C79"/>
				<stop  offset="0.5489" style="stop-color:#888861"/>
				<stop  offset="0.558" style="stop-color:#8B875D"/>
				<stop  offset="1" style="stop-color:#96844D"/>
			</linearGradient>
			<path fill="url(#SVGID_5_)" d="M821.972,201.121h26.593l12.521,87.154l12.527-87.154h26.59v120.097h-17.841v-90.932
				l-14.069,90.932h-15.785l-14.07-90.932v90.932h-16.469V201.121H821.972z"/>
		</g>
	</g>
	<g>
		
			<linearGradient id="SVGID_6_" gradientUnits="userSpaceOnUse" x1="137.3198" y1="400.998" x2="137.3198" y2="105.002" gradientTransform="matrix(1 0 0 -1 84 535)">
			<stop  offset="0" style="stop-color:#5D94A3"/>
			<stop  offset="0.2185" style="stop-color:#5E94A1"/>
			<stop  offset="0.3277" style="stop-color:#649299"/>
			<stop  offset="0.4126" style="stop-color:#6C908C"/>
			<stop  offset="0.4851" style="stop-color:#788C79"/>
			<stop  offset="0.5489" style="stop-color:#888861"/>
			<stop  offset="0.558" style="stop-color:#8B875D"/>
			<stop  offset="1" style="stop-color:#96844D"/>
		</linearGradient>
		<path fill="url(#SVGID_6_)" d="M90.744,283.708c0.276-39.134,13.11-73.3,39.578-101.994
			c22.375-24.255,50.011-39.268,82.468-45.298c62.943-11.695,127.257,19.923,157.291,77.268
			c30.113,57.495,18.803,127.637-27.161,173.687c-45.427,45.51-124.11,59.399-186.507,17.793
			c-12.072,3.973-24.604,5.54-37.445,4.348c-27.007-2.513-47.259-15.143-57.402-40.774c-10.364-26.196-6.904-50.884,11.558-72.813
			C77.854,290.305,83.805,286.282,90.744,283.708z M167.839,401.544c39.231,25.876,107.929,31.53,160.748-12.851
			c52.693-44.273,65.127-119.984,29.487-178.88c-35.288-58.312-108.555-82.783-171.256-57.047
			c-31.789,13.047-55.774,34.879-71.753,65.313c-10.338,19.687-15.52,40.695-15.502,63.377c1.902,0,3.403-0.266,4.768,0.052
			c3.53,0.821,7.269,1.372,10.431,2.994c5.346,2.741,7.113,7.748,5.597,13.376c-1.36,5.052-5.903,8.735-11.275,8.943
			c-2.314,0.087-4.641-0.243-6.962-0.255c-4.152-0.02-8.337-0.241-12.457,0.155c-15.88,1.527-25.77,9.693-28.352,24.143
			c-5.299,29.65,10.127,62.723,43.803,71.862c21.755,5.906,42.661,3.019,62.662-7.213c19.275-9.858,34.067-24.808,47.601-41.309
			c3.761-4.587,4.24-8.666,1.594-14.027c-13.801-27.971-27.322-56.077-40.956-84.132c-0.377-0.78-0.915-1.481-1.897-3.052
			c0,2.228,0,3.427,0,4.627c0,18.478-0.025,36.953,0.007,55.431c0.018,10.647,0.042,21.294,0.236,31.938
			c0.127,6.949,3.824,11.373,10.557,13.159c0.922,0.248,1.844,0.504,2.835,0.775c0,0.925,0,1.718,0,2.688
			c-10.643,0-21.085,0-31.646,0c0-1.066,0-1.877,0-2.638c11.903-2.976,13.775-8.085,13.662-18.017
			c-0.239-21.165,0.092-42.336,0.15-63.504c0.043-16.032,0.059-32.059,0.029-48.09c-0.012-6.722-3.54-11.345-9.958-13.276
			c-1.152-0.347-2.332-0.587-3.744-0.941c0.064-0.975,0.12-1.855,0.186-2.869c9.812,0,19.33,0,28.926,0
			c0.363,0.703,0.717,1.337,1.028,1.991c13.791,29.063,27.518,58.158,41.404,87.172c4.076,8.517,7.108,17.109,4.83,27.537
			c0.842-1.073,1.182-1.411,1.416-1.81c17.524-30.188,31.135-62.06,41.168-95.471c0.476-1.588,0.574-3.406,0.374-5.059
			c-0.812-6.691-4.929-10.341-11.491-11.512c0.084-1.042,0.146-1.852,0.216-2.77c17.259,0,34.338,0,51.715,0
			c-0.082,1.146-0.145,2.039-0.203,2.824c-8.203,2.235-11.181,6.088-11.184,14.313c-0.007,37.688,0.118,75.377-0.063,113.066
			c-0.055,11.183,3.85,14.31,11.521,16.553c0,0.764,0,1.553,0,2.457c-17.506,0-34.795,0-52.283,0
			c0.095-1.115,0.163-1.913,0.224-2.633c8.727-2.533,11.337-5.964,11.369-14.819c0.116-31.327,0.215-62.65,0.319-93.979
			c0.004-1.267,0-2.536,0-3.803c-0.841,0.692-1.148,1.447-1.415,2.215c-8.16,23.628-17.829,46.589-29.831,68.556
			c-13.472,24.652-29.094,47.687-50.76,65.914C185.552,389.89,176.345,395.512,167.839,401.544z"/>
	</g>
	<g>
		
			<linearGradient id="SVGID_7_" gradientUnits="userSpaceOnUse" x1="354.3853" y1="200.0923" x2="354.3853" y2="164.0464" gradientTransform="matrix(1 0 0 -1 84 535)">
			<stop  offset="0" style="stop-color:#5D94A3"/>
			<stop  offset="0.2185" style="stop-color:#5E94A1"/>
			<stop  offset="0.3277" style="stop-color:#649299"/>
			<stop  offset="0.4126" style="stop-color:#6C908C"/>
			<stop  offset="0.4851" style="stop-color:#788C79"/>
			<stop  offset="0.5489" style="stop-color:#888861"/>
			<stop  offset="0.558" style="stop-color:#8B875D"/>
			<stop  offset="1" style="stop-color:#96844D"/>
		</linearGradient>
		<path fill="url(#SVGID_7_)" d="M447.156,361.772c0.038,2.452-0.6,4.549-1.909,6.289c-0.859,1.179-2.077,2.013-3.648,2.498
			c-0.843,0.263-1.826,0.394-2.948,0.394c-2.077,0-3.801-0.515-5.165-1.544c-1.143-0.842-2.044-1.988-2.709-3.439
			c-0.664-1.449-1.052-3.109-1.164-4.983l5.053-0.364c0.225,2.051,0.767,3.535,1.628,4.457c0.636,0.696,1.367,1.027,2.189,0.989
			c1.16-0.037,2.088-0.611,2.78-1.714c0.355-0.544,0.533-1.32,0.533-2.333c0-1.461-0.664-2.913-1.994-4.354
			c-1.047-0.994-2.621-2.481-4.717-4.469c-1.758-1.705-3.004-3.23-3.734-4.578c-0.786-1.518-1.178-3.166-1.178-4.946
			c0-3.202,1.074-5.629,3.227-7.277c1.329-0.994,2.976-1.489,4.94-1.489c1.892,0,3.511,0.42,4.857,1.264
			c1.047,0.653,1.895,1.571,2.54,2.751c0.646,1.179,1.035,2.537,1.164,4.069l-5.082,0.927c-0.15-1.44-0.561-2.563-1.235-3.367
			c-0.487-0.581-1.188-0.872-2.105-0.872c-0.974,0-1.712,0.435-2.218,1.292c-0.412,0.693-0.618,1.553-0.618,2.582
			c0,1.61,0.692,3.248,2.078,4.914c0.523,0.636,1.308,1.383,2.356,2.244c1.236,1.03,2.051,1.751,2.442,2.163
			c1.31,1.309,2.323,2.601,3.032,3.872c0.337,0.6,0.608,1.15,0.814,1.656C446.875,359.658,447.137,360.781,447.156,361.772z"/>
		
			<linearGradient id="SVGID_8_" gradientUnits="userSpaceOnUse" x1="412.7266" y1="200.0923" x2="412.7266" y2="164.0483" gradientTransform="matrix(1 0 0 -1 84 535)">
			<stop  offset="0" style="stop-color:#5D94A3"/>
			<stop  offset="0.2185" style="stop-color:#5E94A1"/>
			<stop  offset="0.3277" style="stop-color:#649299"/>
			<stop  offset="0.4126" style="stop-color:#6C908C"/>
			<stop  offset="0.4851" style="stop-color:#788C79"/>
			<stop  offset="0.5489" style="stop-color:#888861"/>
			<stop  offset="0.558" style="stop-color:#8B875D"/>
			<stop  offset="1" style="stop-color:#96844D"/>
		</linearGradient>
		<path fill="url(#SVGID_8_)" d="M496.711,334.907c2.341,0,4.327,0.824,5.966,2.468c1.639,1.65,2.457,3.633,2.457,5.952v19.201
			c0,2.342-0.825,4.33-2.471,5.966c-1.646,1.639-3.63,2.457-5.949,2.457c-2.341,0-4.324-0.822-5.952-2.47
			c-1.628-1.646-2.442-3.631-2.442-5.952v-19.2c0-2.339,0.823-4.327,2.47-5.966C492.435,335.728,494.409,334.907,496.711,334.907z
			 M499.603,343.218c0-0.842-0.294-1.561-0.883-2.149c-0.592-0.59-1.306-0.884-2.15-0.884c-0.84,0-1.563,0.294-2.16,0.884
			c-0.6,0.589-0.9,1.308-0.9,2.149v19.258c0,0.842,0.301,1.557,0.9,2.147c0.598,0.588,1.317,0.884,2.16,0.884
			c0.844,0,1.559-0.296,2.15-0.884c0.589-0.591,0.883-1.306,0.883-2.147V343.218z"/>
		
			<linearGradient id="SVGID_9_" gradientUnits="userSpaceOnUse" x1="469.8877" y1="199.6421" x2="469.8877" y2="164.4683" gradientTransform="matrix(1 0 0 -1 84 535)">
			<stop  offset="0" style="stop-color:#5D94A3"/>
			<stop  offset="0.2185" style="stop-color:#5E94A1"/>
			<stop  offset="0.3277" style="stop-color:#649299"/>
			<stop  offset="0.4126" style="stop-color:#6C908C"/>
			<stop  offset="0.4851" style="stop-color:#788C79"/>
			<stop  offset="0.5489" style="stop-color:#888861"/>
			<stop  offset="0.558" style="stop-color:#8B875D"/>
			<stop  offset="1" style="stop-color:#96844D"/>
		</linearGradient>
		<path fill="url(#SVGID_9_)" d="M561.117,370.531h-14.459v-35.174h5.306v29.896h9.153V370.531z"/>
		
			<linearGradient id="SVGID_10_" gradientUnits="userSpaceOnUse" x1="526.0117" y1="199.6421" x2="526.0117" y2="164.0757" gradientTransform="matrix(1 0 0 -1 84 535)">
			<stop  offset="0" style="stop-color:#5D94A3"/>
			<stop  offset="0.2185" style="stop-color:#5E94A1"/>
			<stop  offset="0.3277" style="stop-color:#649299"/>
			<stop  offset="0.4126" style="stop-color:#6C908C"/>
			<stop  offset="0.4851" style="stop-color:#788C79"/>
			<stop  offset="0.5489" style="stop-color:#888861"/>
			<stop  offset="0.558" style="stop-color:#8B875D"/>
			<stop  offset="1" style="stop-color:#96844D"/>
		</linearGradient>
		<path fill="url(#SVGID_10_)" d="M609.998,370.924c-2.339,0-4.323-0.813-5.952-2.442c-1.626-1.629-2.442-3.602-2.442-5.925v-27.199
			h5.193v27.144c0,0.844,0.301,1.559,0.899,2.147c0.6,0.592,1.32,0.887,2.163,0.887c0.842,0,1.556-0.295,2.148-0.887
			c0.589-0.589,0.883-1.304,0.883-2.147v-27.144h5.53v27.199c0,2.359-0.824,4.343-2.468,5.952
			C614.302,370.12,612.319,370.924,609.998,370.924z"/>
		
			<linearGradient id="SVGID_11_" gradientUnits="userSpaceOnUse" x1="583.7793" y1="199.6421" x2="583.7793" y2="164.4683" gradientTransform="matrix(1 0 0 -1 84 535)">
			<stop  offset="0" style="stop-color:#5D94A3"/>
			<stop  offset="0.2185" style="stop-color:#5E94A1"/>
			<stop  offset="0.3277" style="stop-color:#649299"/>
			<stop  offset="0.4126" style="stop-color:#6C908C"/>
			<stop  offset="0.4851" style="stop-color:#788C79"/>
			<stop  offset="0.5489" style="stop-color:#888861"/>
			<stop  offset="0.558" style="stop-color:#8B875D"/>
			<stop  offset="1" style="stop-color:#96844D"/>
		</linearGradient>
		<path fill="url(#SVGID_11_)" d="M665.141,340.689h-5.643v-5.332h16.563v5.332h-5.613v29.842h-5.306v-29.842H665.141z"/>
		
			<linearGradient id="SVGID_12_" gradientUnits="userSpaceOnUse" x1="635.8184" y1="199.6421" x2="635.8184" y2="164.4683" gradientTransform="matrix(1 0 0 -1 84 535)">
			<stop  offset="0" style="stop-color:#5D94A3"/>
			<stop  offset="0.2185" style="stop-color:#5E94A1"/>
			<stop  offset="0.3277" style="stop-color:#649299"/>
			<stop  offset="0.4126" style="stop-color:#6C908C"/>
			<stop  offset="0.4851" style="stop-color:#788C79"/>
			<stop  offset="0.5489" style="stop-color:#888861"/>
			<stop  offset="0.558" style="stop-color:#8B875D"/>
			<stop  offset="1" style="stop-color:#96844D"/>
		</linearGradient>
		<path fill="url(#SVGID_12_)" d="M722.474,370.531h-5.308v-35.174h5.308V370.531z"/>
		
			<linearGradient id="SVGID_13_" gradientUnits="userSpaceOnUse" x1="688.4082" y1="200.0923" x2="688.4082" y2="164.0483" gradientTransform="matrix(1 0 0 -1 84 535)">
			<stop  offset="0" style="stop-color:#5D94A3"/>
			<stop  offset="0.2185" style="stop-color:#5E94A1"/>
			<stop  offset="0.3277" style="stop-color:#649299"/>
			<stop  offset="0.4126" style="stop-color:#6C908C"/>
			<stop  offset="0.4851" style="stop-color:#788C79"/>
			<stop  offset="0.5489" style="stop-color:#888861"/>
			<stop  offset="0.558" style="stop-color:#8B875D"/>
			<stop  offset="1" style="stop-color:#96844D"/>
		</linearGradient>
		<path fill="url(#SVGID_13_)" d="M772.393,334.907c2.34,0,4.329,0.824,5.966,2.468c1.639,1.65,2.456,3.633,2.456,5.952v19.201
			c0,2.342-0.822,4.33-2.468,5.966c-1.647,1.639-3.633,2.457-5.952,2.457c-2.339,0-4.321-0.822-5.951-2.47
			c-1.627-1.646-2.44-3.631-2.44-5.952v-19.2c0-2.339,0.824-4.327,2.47-5.966C768.116,335.728,770.091,334.907,772.393,334.907z
			 M775.285,343.218c0-0.842-0.293-1.561-0.885-2.149c-0.589-0.59-1.307-0.884-2.147-0.884c-0.842,0-1.563,0.294-2.163,0.884
			c-0.598,0.589-0.897,1.308-0.897,2.149v19.258c0,0.842,0.3,1.557,0.897,2.147c0.601,0.588,1.32,0.884,2.163,0.884
			c0.842,0,1.559-0.296,2.147-0.884c0.592-0.591,0.885-1.306,0.885-2.147V343.218z"/>
		
			<linearGradient id="SVGID_14_" gradientUnits="userSpaceOnUse" x1="747.4648" y1="199.6724" x2="747.4648" y2="164.4683" gradientTransform="matrix(1 0 0 -1 84 535)">
			<stop  offset="0" style="stop-color:#5D94A3"/>
			<stop  offset="0.2185" style="stop-color:#5E94A1"/>
			<stop  offset="0.3277" style="stop-color:#649299"/>
			<stop  offset="0.4126" style="stop-color:#6C908C"/>
			<stop  offset="0.4851" style="stop-color:#788C79"/>
			<stop  offset="0.5489" style="stop-color:#888861"/>
			<stop  offset="0.558" style="stop-color:#8B875D"/>
			<stop  offset="1" style="stop-color:#96844D"/>
		</linearGradient>
		<path fill="url(#SVGID_14_)" d="M828.271,335.327l7.039,23.66v-23.66h5.307v35.204h-5.698l-7.299-22.542v22.542h-5.305v-35.204
			H828.271z"/>
		
			<linearGradient id="SVGID_15_" gradientUnits="userSpaceOnUse" x1="806.6641" y1="200.0923" x2="806.6641" y2="164.0464" gradientTransform="matrix(1 0 0 -1 84 535)">
			<stop  offset="0" style="stop-color:#5D94A3"/>
			<stop  offset="0.2185" style="stop-color:#5E94A1"/>
			<stop  offset="0.3277" style="stop-color:#649299"/>
			<stop  offset="0.4126" style="stop-color:#6C908C"/>
			<stop  offset="0.4851" style="stop-color:#788C79"/>
			<stop  offset="0.5489" style="stop-color:#888861"/>
			<stop  offset="0.558" style="stop-color:#8B875D"/>
			<stop  offset="1" style="stop-color:#96844D"/>
		</linearGradient>
		<path fill="url(#SVGID_15_)" d="M899.438,361.772c0.035,2.452-0.601,4.549-1.909,6.289c-0.863,1.179-2.079,2.013-3.651,2.498
			c-0.842,0.263-1.823,0.394-2.945,0.394c-2.079,0-3.799-0.515-5.167-1.544c-1.142-0.842-2.046-1.988-2.706-3.439
			c-0.667-1.449-1.056-3.109-1.167-4.983l5.052-0.364c0.226,2.051,0.77,3.535,1.628,4.457c0.638,0.696,1.368,1.027,2.19,0.989
			c1.16-0.037,2.089-0.611,2.778-1.714c0.356-0.544,0.536-1.32,0.536-2.333c0-1.461-0.665-2.913-1.992-4.354
			c-1.05-0.994-2.622-2.481-4.719-4.469c-1.76-1.705-3.006-3.23-3.733-4.578c-0.788-1.518-1.182-3.166-1.182-4.946
			c0-3.202,1.074-5.629,3.229-7.277c1.326-0.994,2.977-1.489,4.942-1.489c1.889,0,3.508,0.42,4.853,1.264
			c1.049,0.653,1.896,1.571,2.543,2.751c0.644,1.179,1.034,2.537,1.163,4.069l-5.079,0.927c-0.151-1.44-0.563-2.563-1.236-3.367
			c-0.488-0.581-1.189-0.872-2.106-0.872c-0.971,0-1.71,0.435-2.218,1.292c-0.412,0.693-0.616,1.553-0.616,2.582
			c0,1.61,0.689,3.248,2.077,4.914c0.521,0.636,1.308,1.383,2.356,2.244c1.238,1.03,2.052,1.751,2.444,2.163
			c1.308,1.309,2.32,2.601,3.033,3.872c0.333,0.6,0.607,1.15,0.813,1.656C899.156,359.658,899.419,360.781,899.438,361.772z"/>
	</g>
</g>
</svg>
