<?xml version="1.0" encoding="utf-8"?>
<!-- Generator: Adobe Illustrator 16.0.0, SVG Export Plug-In . SVG Version: 6.00 Build 0)  -->
<!DOCTYPE svg PUBLIC "-//W3C//DTD SVG 1.1//EN" "http://www.w3.org/Graphics/SVG/1.1/DTD/svg11.dtd">
<svg version="1.1" id="Layer_1" xmlns="http://www.w3.org/2000/svg" xmlns:xlink="http://www.w3.org/1999/xlink" x="0px" y="0px"
	 width="460px" height="400px" viewBox="0 0 460 400" enable-background="new 0 0 460 400" xml:space="preserve">
<text transform="matrix(1 0 0 1 156.8745 -144.8721)" font-family="'FONTSPRINGDEMO-BebasNeueProBold'" font-size="70">MOWAM</text>
<g>
	<linearGradient id="SVGID_1_" gradientUnits="userSpaceOnUse" x1="229.9995" y1="10.1221" x2="229.9995" y2="389.8784">
		<stop  offset="0" style="stop-color:#5D94A3"/>
		<stop  offset="0.2185" style="stop-color:#5E94A1"/>
		<stop  offset="0.3277" style="stop-color:#649299"/>
		<stop  offset="0.4126" style="stop-color:#6C908C"/>
		<stop  offset="0.4851" style="stop-color:#788C79"/>
		<stop  offset="0.5489" style="stop-color:#888861"/>
		<stop  offset="0.558" style="stop-color:#8B875D"/>
		<stop  offset="1" style="stop-color:#96844D"/>
	</linearGradient>
	<path fill-rule="evenodd" clip-rule="evenodd" fill="url(#SVGID_1_)" d="M62.475,202.189c0.355-50.206,16.819-94.04,50.778-130.854
		c28.708-31.119,64.163-50.38,105.804-58.117c80.754-15.003,163.269,25.561,201.801,99.133
		c38.634,73.763,24.125,163.755-34.848,222.836c-58.281,58.388-159.229,76.208-239.283,22.828
		c-15.487,5.097-31.567,7.109-48.041,5.578c-34.65-3.223-60.633-19.429-73.645-52.313c-13.298-33.607-8.858-65.283,14.828-93.417
		C45.938,210.654,53.574,205.494,62.475,202.189z M161.388,353.372c50.332,33.198,138.469,40.451,206.237-16.487
		c67.602-56.802,83.558-153.937,37.831-229.5C360.181,32.572,266.183,1.177,185.736,34.196
		c-40.785,16.74-71.558,44.749-92.057,83.794c-13.264,25.258-19.911,52.211-19.889,81.313c2.441,0,4.366-0.341,6.118,0.065
		c4.528,1.054,9.325,1.763,13.382,3.844c6.858,3.516,9.125,9.94,7.179,17.162c-1.746,6.479-7.572,11.207-14.465,11.473
		c-2.968,0.111-5.955-0.313-8.934-0.324c-5.328-0.026-10.695-0.311-15.982,0.198c-20.374,1.96-33.062,12.437-36.374,30.975
		c-6.799,38.04,12.991,80.472,56.198,92.197c27.91,7.577,54.732,3.874,80.393-9.251c24.729-12.65,43.708-31.83,61.069-52.999
		c4.825-5.885,5.44-11.119,2.045-17.998c-17.707-35.886-35.053-71.945-52.544-107.939c-0.485-1-1.173-1.902-2.436-3.916
		c0,2.858,0,4.397,0,5.937c-0.001,23.706-0.032,47.41,0.01,71.117c0.023,13.66,0.054,27.319,0.303,40.975
		c0.163,8.917,4.906,14.59,13.543,16.885c1.183,0.315,2.365,0.646,3.637,0.992c0,1.187,0,2.205,0,3.449c-13.653,0-27.052,0-40.601,0
		c0-1.368,0-2.407,0-3.385c15.271-3.815,17.672-10.37,17.527-23.114c-0.307-27.154,0.119-54.316,0.194-81.475
		c0.056-20.568,0.074-41.132,0.037-61.699c-0.016-8.624-4.541-14.555-12.775-17.033c-1.477-0.445-2.993-0.755-4.804-1.208
		c0.082-1.25,0.153-2.38,0.239-3.68c12.589,0,24.799,0,37.112,0c0.466,0.903,0.919,1.715,1.319,2.554
		c17.693,37.287,35.305,74.616,53.122,111.84c5.229,10.926,9.119,21.951,6.193,35.328c1.082-1.374,1.519-1.809,1.818-2.321
		c22.483-38.728,39.945-79.621,52.817-122.486c0.61-2.037,0.736-4.37,0.479-6.491c-1.041-8.584-6.324-13.267-14.744-14.769
		c0.108-1.335,0.188-2.376,0.279-3.553c22.142,0,44.056,0,66.35,0c-0.105,1.471-0.188,2.616-0.262,3.623
		c-10.524,2.867-14.345,7.81-14.349,18.363c-0.01,48.354,0.152,96.708-0.08,145.061c-0.069,14.347,4.938,18.36,14.78,21.236
		c0,0.98,0,1.992,0,3.152c-22.46,0-44.642,0-67.078,0c0.121-1.431,0.21-2.455,0.286-3.378c11.197-3.25,14.547-7.652,14.587-19.013
		c0.148-40.191,0.276-80.38,0.41-120.572c0.004-1.626,0-3.253,0-4.879c-1.078,0.887-1.474,1.855-1.814,2.842
		c-10.469,30.313-22.875,59.773-38.273,87.957c-17.283,31.629-37.326,61.181-65.123,84.566
		C184.112,338.42,172.3,345.633,161.388,353.372z"/>
</g>
</svg>
